<?xml version="1.0" encoding="UTF-8" standalone="no"?><!DOCTYPE svg PUBLIC "-//W3C//DTD SVG 1.1//EN" "http://www.w3.org/Graphics/SVG/1.1/DTD/svg11.dtd"><svg width="100%" height="100%" viewBox="0 0 1454 521" version="1.1" xmlns="http://www.w3.org/2000/svg" xmlns:xlink="http://www.w3.org/1999/xlink" xml:space="preserve" xmlns:serif="http://www.serif.com/" style="fill-rule:evenodd;clip-rule:evenodd;stroke-linejoin:round;stroke-miterlimit:2;"><rect id="Artboard1" x="0" y="0" width="1453.32" height="520.242" style="fill:none;"/><clipPath id="_clip1"><rect x="0" y="0" width="1453.32" height="520.242"/></clipPath><g clip-path="url(#_clip1)"><g><path d="M0,507.75l261.233,0c69.08,0 129.096,-14.825 171.667,-52.342c42.55,-37.5 68.646,-98.141 68.696,-192.275c-0.034,-101.129 -24.392,-162.533 -64.913,-198.887c-40.521,-36.408 -98.525,-48.629 -167.758,-48.613l0,-0.016l-268.925,-0l0,106.283l227.779,0c34.496,-0.187 58.088,12.05 71.421,35.729c13.371,23.509 17.379,56.946 17.433,100.454c-0.054,42.067 -3.716,75.138 -16.771,98.646c-13.058,23.663 -36.512,36.317 -71.391,36.109l-51.908,-0l-0,-174.2l-176.563,-0l0,289.112Z" style="fill:#005aaa;fill-rule:nonzero;"/><path d="M539.946,507.75l176.562,0l0,-178.521l220.004,0l0,-110.591l-220.004,-0l0,-96.738l220.004,0l0,-106.283l-396.566,-0l-0,492.133Z" style="fill:#005aaa;fill-rule:nonzero;"/><g><path d="M1058.11,69.054c-52.171,41.267 -85.141,102.621 -85.208,185.434c0.067,88.404 31.804,153.387 83.246,196.787c51.458,43.404 123.108,65.104 203.108,65.104c74.913,0 134.096,-7.55 196.388,-26.041l-0,-227.084l-150.034,0l0,132.275l-3.333,1.288c-12.604,4.808 -28.35,4.6 -41.633,4.666c-38.696,0.105 -66.267,-16.075 -83.175,-41.145c-16.963,-25.034 -23.767,-58.4 -23.804,-93.609c-0.034,-46.825 15.866,-83.491 44.045,-108.004c28.159,-24.533 68.005,-36.825 115.259,-36.825c48.316,0 86.391,10.871 113.491,25.142l0,-122.45c-44.633,-10.9 -78.591,-17.571 -167.204,-17.604l-0.037,-0c-77.188,-0 -148.921,20.85 -201.109,62.066Z" style="fill:#005aaa;fill-rule:nonzero;"/></g></g></g></svg>